<?xml version="1.0" encoding="iso-8859-1"?>
<!-- Generator: Adobe Illustrator 19.0.0, SVG Export Plug-In . SVG Version: 6.00 Build 0)  -->
<svg xmlns="http://www.w3.org/2000/svg" xmlns:xlink="http://www.w3.org/1999/xlink" version="1.1" id="Layer_1" x="0px" y="0px" viewBox="0 0 512 512" style="enable-background:new 0 0 512 512;" xml:space="preserve" width="512px" height="512px">
<g>
	<g>
		<path d="M365.404,267.417c-14.328-21.907-36.174-34.472-59.938-34.472c-22.754,0-42.677,14.258-53.403,35.435    c-10.727-21.176-30.649-35.435-53.404-35.435c-41.446,0-75.164,39.029-75.164,87.003c0,17.427,5.914,35.516,17.577,53.767    c2.496,3.908,7.69,5.052,11.599,2.554c3.908-2.497,5.051-7.691,2.553-11.599c-9.909-15.507-14.933-30.553-14.933-44.722    c0-38.712,26.184-70.207,58.367-70.207c24.817,0,45.006,24.443,45.006,54.486c0,4.638,3.759,8.398,8.398,8.398    c4.639,0,8.398-3.76,8.398-8.398c0-30.044,20.19-54.486,45.005-54.486c17.99,0,34.714,9.794,45.887,26.878    c8.164,12.446,12.48,27.429,12.48,43.328c0,46.818-55.517,96.724-111.774,126.409c-15.102-7.964-30.106-17.423-43.628-27.517    c-11.159-8.302-21.255-16.975-30.009-25.776c-3.27-3.288-8.588-3.303-11.876-0.032c-3.289,3.271-3.302,8.589-0.031,11.876    c9.338,9.389,20.068,18.611,31.88,27.399c15.399,11.497,32.637,22.213,49.854,30.993c1.198,0.611,2.506,0.917,3.815,0.917    c1.311,0,2.622-0.307,3.822-0.92c57.546-29.414,124.745-84.606,124.745-143.348C380.63,300.766,375.363,282.599,365.404,267.417z" fill="#D80027"/>
	</g>
</g>
<g>
	<g>
		<path d="M446.376,194.77c-4.639,0-8.398,3.76-8.398,8.398v292.034H135.804c-4.639,0-8.398,3.76-8.398,8.398    s3.759,8.398,8.398,8.398h310.572c4.639,0,8.398-3.76,8.398-8.398V203.169C454.775,198.529,451.016,194.77,446.376,194.77z" fill="#D80027"/>
	</g>
</g>
<g>
	<g>
		<path d="M488.143,166.443L260.932,1.6c-2.941-2.132-6.921-2.134-9.864,0l-93.904,68.128V39.312c0-4.638-3.759-8.398-8.398-8.398    H79.241c-4.639,0-8.398,3.76-8.398,8.398v93.042l-46.986,34.088c-2.946,2.138-4.179,5.928-3.056,9.39    c1.123,3.461,4.349,5.806,7.988,5.806h28.438V503.6c0,4.638,3.759,8.398,8.398,8.398h41.839c4.639,0,8.398-3.76,8.398-8.398    c0-4.638-3.759-8.398-8.398-8.398H74.022V181.64h409.189c3.639,0,6.865-2.344,7.989-5.806    C492.322,172.373,491.089,168.581,488.143,166.443z M87.639,47.71h52.728v34.204l-52.728,38.255V47.71z M54.666,164.843    L256,18.774l201.334,146.069H54.666z" fill="#D80027"/>
	</g>
</g>
<g>
	<g>
		<path d="M256,68.28c-22.175,0-40.216,18.041-40.216,40.216s18.041,40.215,40.216,40.215s40.215-18.04,40.215-40.215    S278.175,68.28,256,68.28z M256.001,131.914c-12.913,0-23.419-10.505-23.419-23.418s10.506-23.419,23.419-23.419    c12.912,0,23.418,10.506,23.418,23.419S268.913,131.914,256.001,131.914z" fill="#D80027"/>
	</g>
</g>
<g>
</g>
<g>
</g>
<g>
</g>
<g>
</g>
<g>
</g>
<g>
</g>
<g>
</g>
<g>
</g>
<g>
</g>
<g>
</g>
<g>
</g>
<g>
</g>
<g>
</g>
<g>
</g>
<g>
</g>
</svg>
